<svg xmlns="http://www.w3.org/2000/svg" width="112" height="112" fill="none" viewBox="110 -8 112 112"><circle cx="170" cy="52" r="28" fill="#131928"/><path fill="url(#paint0_linear)" fill-rule="evenodd" d="M166 96C192.51 96 214 74.5097 214 48C214 21.4903 192.51 0 166 0C139.49 0 118 21.4903 118 48C118 74.5097 139.49 96 166 96ZM198 52C198 67.464 185.464 80 170 80C154.536 80 142 67.464 142 52C142 49.1303 142.432 46.3615 143.234 43.7548C145.429 48.6165 150.319 52 156 52C163.732 52 170 45.732 170 38C170 32.3192 166.617 27.4287 161.755 25.2337C164.362 24.4317 167.13 24 170 24C185.464 24 198 36.536 198 52Z" clip-rule="evenodd"/><path fill="#131928" fill-rule="evenodd" d="M198 52C198 67.464 185.464 80 170 80C154.864 80 142.533 67.9897 142.017 52.9791C142.006 53.318 142 53.6584 142 54C142 70.5686 155.431 84 172 84C188.569 84 202 70.5686 202 54C202 37.4315 188.569 24 172 24C171.66 24 171.321 24.0057 170.983 24.0169C185.992 24.5347 198 36.865 198 52Z" clip-rule="evenodd" opacity=".2"/><path fill="url(#paint1_linear)" fill-rule="evenodd" d="M166 12C146.118 12 130 28.1177 130 48C130 50.2091 128.209 52 126 52C123.791 52 122 50.2091 122 48C122 23.6995 141.699 4 166 4C168.209 4 170 5.79086 170 8C170 10.2091 168.209 12 166 12Z" clip-rule="evenodd"/><defs><linearGradient id="paint0_linear" x1="166" x2="235.5" y1="0" y2="69.5" gradientUnits="userSpaceOnUse"><stop stop-color="#C395FC"/><stop offset="1" stop-color="#4F65F5"/></linearGradient><linearGradient id="paint1_linear" x1="146" x2="146" y1="8" y2="48" gradientUnits="userSpaceOnUse"><stop stop-color="#fff" stop-opacity=".4"/><stop offset="1" stop-color="#fff" stop-opacity="0"/></linearGradient></defs></svg>
